<svg width="23" height="23" viewBox="0 0 23 23" fill="none" xmlns="http://www.w3.org/2000/svg">
<path d="M10.0625 15.8125C9.6672 15.8125 9.32879 15.6718 9.04728 15.3903C8.76577 15.1087 8.62501 14.7703 8.62501 14.375V13.4766C7.9422 13.0094 7.41212 12.4104 7.03478 11.6797C6.65743 10.949 6.46876 10.1703 6.46876 9.34376C6.46876 7.9422 6.95691 6.75327 7.93322 5.77696C8.90952 4.80066 10.0985 4.31251 11.5 4.31251C12.9016 4.31251 14.0905 4.80066 15.0668 5.77696C16.0431 6.75327 16.5313 7.9422 16.5313 9.34376C16.5313 10.1703 16.3426 10.946 15.9653 11.6707C15.5879 12.3955 15.0578 12.9974 14.375 13.4766V14.375C14.375 14.7703 14.2343 15.1087 13.9528 15.3903C13.6712 15.6718 13.3328 15.8125 12.9375 15.8125H10.0625ZM10.0625 14.375H12.9375V12.7219L13.5485 12.2906C14.0396 11.9552 14.4199 11.527 14.6895 11.0059C14.959 10.4848 15.0938 9.93074 15.0938 9.34376C15.0938 8.34949 14.7434 7.50196 14.0426 6.80118C13.3418 6.1004 12.4943 5.75001 11.5 5.75001C10.5057 5.75001 9.65822 6.1004 8.95744 6.80118C8.25665 7.50196 7.90626 8.34949 7.90626 9.34376C7.90626 9.93074 8.04103 10.4848 8.31056 11.0059C8.58009 11.527 8.96043 11.9552 9.45158 12.2906L10.0625 12.7219V14.375ZM10.0625 18.6875C9.85887 18.6875 9.68817 18.6186 9.5504 18.4809C9.41264 18.3431 9.34376 18.1724 9.34376 17.9688V17.25H13.6563V17.9688C13.6563 18.1724 13.5874 18.3431 13.4496 18.4809C13.3119 18.6186 13.1412 18.6875 12.9375 18.6875H10.0625Z" fill="#9388B3"/>
</svg>
