<?xml version="1.0" encoding="UTF-8"?>
<svg width="24" height="24" viewBox="0 0 24 24" fill="none" xmlns="http://www.w3.org/2000/svg">
    <path d="M4.5 3.5C4.5 4.88071 3.38071 6 2 6C0.619288 6 -0.5 4.88071 -0.5 3.5C-0.5 2.11929 0.619288 1 2 1C3.38071 1 4.5 2.11929 4.5 3.5Z" fill="#a1a1a1"/>
    <path d="M4 8H0V20H4V8Z" fill="#a1a1a1"/>
    <path d="M12.5 8.17V8H9V20H13V13C13 11.9 13.9 11 15 11C16.1 11 17 11.9 17 13V20H21V13C21 10.24 18.76 8 16 8C14.5 8 13.25 8.5 12.5 8.17Z" fill="#a1a1a1"/>
</svg> 