<svg width="31" height="31" viewBox="0 0 31 31" fill="none" xmlns="http://www.w3.org/2000/svg">
<rect width="31" height="31" rx="15.5" fill="#313131"/>
<path d="M15.5 18C14.6667 18 13.9583 17.7083 13.375 17.125C12.7917 16.5417 12.5 15.8333 12.5 15V9C12.5 8.16667 12.7917 7.45833 13.375 6.875C13.9583 6.29167 14.6667 6 15.5 6C16.3333 6 17.0417 6.29167 17.625 6.875C18.2083 7.45833 18.5 8.16667 18.5 9V15C18.5 15.8333 18.2083 16.5417 17.625 17.125C17.0417 17.7083 16.3333 18 15.5 18ZM14.5 25V21.925C12.7667 21.6917 11.3333 20.9167 10.2 19.6C9.06667 18.2833 8.5 16.75 8.5 15H10.5C10.5 16.3833 10.9875 17.5625 11.9625 18.5375C12.9375 19.5125 14.1167 20 15.5 20C16.8833 20 18.0625 19.5125 19.0375 18.5375C20.0125 17.5625 20.5 16.3833 20.5 15H22.5C22.5 16.75 21.9333 18.2833 20.8 19.6C19.6667 20.9167 18.2333 21.6917 16.5 21.925V25H14.5ZM15.5 16C15.7833 16 16.0208 15.9042 16.2125 15.7125C16.4042 15.5208 16.5 15.2833 16.5 15V9C16.5 8.71667 16.4042 8.47917 16.2125 8.2875C16.0208 8.09583 15.7833 8 15.5 8C15.2167 8 14.9792 8.09583 14.7875 8.2875C14.5958 8.47917 14.5 8.71667 14.5 9V15C14.5 15.2833 14.5958 15.5208 14.7875 15.7125C14.9792 15.9042 15.2167 16 15.5 16Z" fill="#9388B3"/>
</svg>
