<?xml version="1.0" encoding="utf-8"?>
<!-- Generator: Adobe Illustrator 25.4.1, SVG Export Plug-In . SVG Version: 6.00 Build 0)  -->
<svg version="1.0" id="Layer_1" xmlns="http://www.w3.org/2000/svg" xmlns:xlink="http://www.w3.org/1999/xlink" x="0px" y="0px"
	 viewBox="0 0 968 644.6" style="enable-background:new 0 0 968 644.6;" xml:space="preserve">
<style type="text/css">
	.st0{fill:#BBDD8D;}
	.st1{fill:#8EC642;}
	.st2{fill:#FFFFFF;}
	.st3{fill:#A5D167;}
	.st4{fill:none;}
</style>
<path class="st0" d="M305,205.7c8.6,2.3,17.4,4.3,25.9,6.9c28.2,8.7,51.9,24.3,70.7,47.1c2.7,3.3,5.5,6.6,7.9,10.1
	c5.8,8.4,4.8,18-2.3,22.7c-7.5,5.1-17.1,2.9-23-5.8c-9.3-13.4-21.2-24.7-35-33.3c-16-10.1-33.4-15.1-52.1-17.3
	c-20-2.3-39,0.8-57.5,8.1c-21.4,8.3-39.8,22.9-52.9,41.7c-2.9,4.1-6,7.8-11.1,8.6c-6.2,1-12.2,0-15.9-5.8s-3.9-12.4,0.3-17.7
	c7.8-9.8,15.6-19.8,24.8-28.1c18.2-16.5,39.9-27.1,63.7-33.2c5.6-1.5,11.3-2.9,17-4.3C284.5,204.1,288.5,203.1,305,205.7z"/>
<path class="st1" d="M461.4,309.9c23.9,0.6,47,0.4,69.9,2.1c16,1.2,26,10.9,28.6,25c2.6,14.1-3.4,24.9-15.8,32.7
	c1.7,0.9,3,1.8,4.5,2.5c14.7,7.1,18.6,18.9,18.1,30.3c-0.7,15.4-10.7,28.4-23.8,32.4c-3.3,1-6.7,2-10,2c-23.6,0.2-47.3,0.1-71.5,0.1
	L461.4,309.9z M487.1,382.7v34.2c13.9-0.6,27.2-1,40.5-1.9c6.3-0.4,10.6-4.5,12-10.5s1.2-12.4-4.1-16.5c-3.4-2.6-8.1-4.8-12.3-5
	C511.4,382.3,499.4,382.7,487.1,382.7L487.1,382.7z M487,361.9c13-0.7,25.5-0.9,37.9-2.2c6.8-0.7,10.4-6.6,10.4-13.6
	s-3.4-12.7-9.8-13c-12.7-0.7-25.4-0.2-38.4-0.2V361.9z"/>
<path class="st1" d="M143.9,389.3v47.6h-25.4V310.5c10.8,0,21.3-0.2,31.8,0c11.4,0.2,22.8,0.5,34.1,1.4c13.9,1,25.5,10.8,28.8,24.3
	c3.6,14.6,2.9,28.9-8,40.9c-7.8,8.7-18,11.7-29.2,12C165.6,389.4,155.1,389.3,143.9,389.3z M143.9,368.9c10.5-0.7,20.1-1,29.7-2
	c8-0.6,14.4-7.1,14.7-15.2c0.7-9.1-3.4-16-12.3-18c-10.5-2.4-21.3-1.1-32.1-1.2V368.9z"/>
<path class="st1" d="M418.4,310.7h23.4v126.2h-21.4c-0.2-3.4-0.4-6.8-0.7-10.8c-1.1,0.6-2.2,1.4-3.2,2.2
	c-16.4,17.8-46.8,15-58.6-11.4c-7.5-16.9-7.4-34.6-0.1-51.6c9.5-22.1,36-28.6,55.2-14.2c1.3,1,2.6,2.1,5.2,4.2c0-8.5,0-15.7,0-22.9
	S418.3,317.9,418.4,310.7z M418.8,392.1c-0.8-5-1.2-9.9-2.3-14.6c-2.3-9.4-9.6-15.4-18.1-15.5s-16,5.7-18.7,14.9
	c-3,9.8-2.4,19.8,0.5,29.5c2.7,9.1,9.6,13.9,18.4,13.8c7.8-0.1,15.1-5.7,17.6-13.9C417.6,401.6,418,396.8,418.8,392.1z"/>
<path class="st1" d="M282.1,337.4c28-0.8,51.1,23.7,50.5,51.4c-0.6,27.9-23.3,50.2-51.2,50.2c-29.1-0.1-50.9-25.4-50.6-51.7
	C231.1,362.8,252,336.3,282.1,337.4z"/>
<path class="st2" d="M281.3,361.6c-15.2,0.1-26.2,11.5-26,26.8c0.2,14.7,12.2,26.5,26.9,26.4c14.5-0.2,26.4-12.6,26.2-27.2
	C308.2,372.7,296.5,361.5,281.3,361.6z"/>
<path class="st3" d="M201.1,307c1.2-3.4,1.8-7.2,3.9-10.1c37.2-52.1,116.3-54.4,154.9,0.2c7.5,10.7,2.7,22.9-9.6,24.6
	c-6.8,1-11.9-2.4-15.9-8c-9-12.4-20.8-21-35.9-24.7c-24.2-6-50.7,2.1-65.9,21.9c-2.1,2.7-4.2,5.5-6.9,7.6c-4.8,3.7-10.2,4.6-16,1.8
	C204.2,317.7,201.5,313.4,201.1,307z"/>
<path class="st1" d="M753.3,437H730l-3.8-8.9c-9.8,8.8-20.8,12.2-33.4,11c-13.3-1.3-23.5-10.4-25-23.9c-1.2-11.1,3.9-23,17.3-27.4
	c8.9-3,18.2-4.6,27.3-6.9c1.9-0.5,3.8-1,5.8-1.5c3.1-0.8,6.3-1.2,6.2-5.6s-1.2-8.4-6-10.3c-10.8-4.1-18.9-1.2-26.9,10l-19.9-3.7
	c0.8-12.6,10.4-22.4,23.9-25.2c10.7-2.3,21.7-2.2,32.3,0.3c9.9,2.3,20.3,8.5,20.3,23c0,10.5,0.2,21.1,0.2,31.6
	C748,412.1,748.5,424.6,753.3,437z M725.5,393.4c-10.1,2.6-18.2,4.2-26,6.7c-4.6,1.5-7.4,5.1-7.2,10.5c0.2,5.2,2.8,8.5,7.4,10.5
	c8.5,3.6,20.7-1.4,23.4-10.2C724.6,405.9,724.6,400.4,725.5,393.4L725.5,393.4z"/>
<path class="st1" d="M660,399h-59.1c-0.7,10.8,4.2,18.7,12.7,21.3c10.1,3.1,15.2,0.4,21.8-11.9c3.6,0.5,7.5,1,11.4,1.7
	c3.6,0.6,7.2,1.4,11.6,2.3c-1.3,8.5-6.3,14.4-12.5,19.3c-24.8,19.6-64.2,4.7-69.8-26.3c-3.1-17.2-1.7-33.6,9.8-47.7
	c18.4-22.5,56.4-17.9,68.8,8.3C659.4,375.9,661.1,386.5,660,399z M635.8,383.6c-0.1-13.5-7.8-22.2-18.5-21.5s-17.8,10.3-15.9,21.5
	H635.8z"/>
<path class="st1" d="M849.2,437h-23.6c-0.2-2.9-0.4-5.3-0.4-7.8c-0.1-16.6,0-33.1-0.2-49.7c-0.2-10.4-4.8-16.2-13-17.3
	c-8.5-1.1-17.7,5.3-19.7,14.3c-1,4.7-1.5,9.6-1.6,14.4c-0.2,15.1-0.1,30.2-0.1,45.9h-23.7v-91h21.5c0.2,3.7,0.5,7.3,0.8,11.8
	c7.1-7.4,15-12.5,24.9-14.1c18.3-3,33.9,7.7,34.9,26C850,391.7,849.2,414,849.2,437z"/>
<rect x="84" y="182.3" class="st4" width="800" height="280"/>
</svg>
