<?xml version="1.0" encoding="UTF-8"?>
<svg width="24" height="24" viewBox="0 0 24 24" fill="none" xmlns="http://www.w3.org/2000/svg">
    <path d="M12 0C5.373 0 0 5.373 0 12C0 18.627 5.373 24 12 24C18.627 24 24 18.627 24 12C24 5.373 18.627 0 12 0ZM18.066 13.045C18.135 13.265 18.172 13.497 18.172 13.734C18.172 16.262 15.458 18.316 12.116 18.316C8.774 18.316 6.06 16.262 6.06 13.734C6.06 13.497 6.097 13.265 6.166 13.045C5.789 12.825 5.538 12.434 5.538 11.983C5.538 11.276 6.111 10.703 6.818 10.703C7.178 10.703 7.506 10.849 7.736 11.087C8.863 10.242 10.399 9.703 12.116 9.669L12.948 6.337C12.967 6.269 13.015 6.212 13.078 6.179C13.141 6.146 13.214 6.14 13.282 6.162L15.855 6.782C16.048 6.428 16.421 6.191 16.851 6.191C17.489 6.191 18.007 6.709 18.007 7.347C18.007 7.985 17.489 8.503 16.851 8.503C16.229 8.503 15.722 8.011 15.698 7.397L13.451 6.847L12.722 9.784C14.332 9.878 15.766 10.411 16.828 11.222C17.058 10.952 17.401 10.785 17.781 10.785C18.488 10.785 19.061 11.358 19.061 12.065C19.061 12.483 18.842 12.85 18.507 13.073C18.507 13.073 18.066 13.045 18.066 13.045ZM9.029 13.734C9.029 14.393 9.563 14.927 10.222 14.927C10.881 14.927 11.415 14.393 11.415 13.734C11.415 13.075 10.881 12.541 10.222 12.541C9.563 12.541 9.029 13.075 9.029 13.734ZM14.079 16.161C13.541 16.699 12.116 16.724 12.116 16.724C12.116 16.724 10.691 16.699 10.153 16.161C10.012 16.02 10.012 15.792 10.153 15.651C10.294 15.51 10.522 15.51 10.663 15.651C10.938 15.926 11.837 16.013 12.116 16.013C12.395 16.013 13.294 15.926 13.569 15.651C13.71 15.51 13.938 15.51 14.079 15.651C14.221 15.792 14.221 16.02 14.079 16.161ZM14.01 14.927C14.669 14.927 15.203 14.393 15.203 13.734C15.203 13.075 14.669 12.541 14.01 12.541C13.351 12.541 12.817 13.075 12.817 13.734C12.817 14.393 13.351 14.927 14.01 14.927Z" fill="#a1a1a1"/>
</svg> 